<svg width="26" height="23" viewBox="0 0 26 23"  fill="none" xmlns="http://www.w3.org/2000/svg">
<path d="M12.276 15.184C12.276 15.4347 12.2917 15.6852 12.323 15.934C12.2917 15.6852 12.276 15.4347 12.276 15.184C12.278 14.8073 12.3158 14.4316 12.389 14.062" stroke="#057BFF" stroke-width="2" stroke-linecap="round" stroke-linejoin="round"/>
<path fill-rule="evenodd" clip-rule="evenodd" d="M18.276 21.184C21.4447 21.1878 24.07 18.727 24.2711 15.5647C24.4721 12.4025 22.1796 9.629 19.036 9.23142C15.8924 8.83385 12.9816 10.9493 12.389 14.062C11.0002 13.3962 9.34539 13.6486 8.21817 14.6981C7.09095 15.7476 6.7212 17.3802 7.28623 18.8129C7.85127 20.2457 9.23586 21.1864 10.776 21.184H18.276Z" stroke="#057BFF" stroke-width="2" stroke-linecap="round" stroke-linejoin="round"/>
<path d="M7.02602 7.68401C7.02598 7.93475 7.04168 8.18524 7.07302 8.43401C7.04168 8.18524 7.02598 7.93475 7.02602 7.68401C7.02795 7.30727 7.06579 6.93157 7.13902 6.56201" stroke="#057BFF" stroke-width="2" stroke-linecap="round" stroke-linejoin="round"/>
<path d="M18.835 6.176C18.1283 3.46104 15.6346 1.59823 12.8306 1.69074C10.0267 1.78324 7.66122 3.80636 7.13498 6.56201C5.74617 5.89622 4.09136 6.14859 2.96414 7.19809C1.83692 8.24758 1.46717 9.88018 2.03221 11.3129C2.59724 12.7457 3.98184 13.6864 5.52198 13.684" stroke="#057BFF" stroke-width="2" stroke-linecap="round" stroke-linejoin="round"/>
</svg>
