<svg width="28" height="22" viewBox="0 0 28 22" fill="none" xmlns="http://www.w3.org/2000/svg">
<path d="M10.1666 4.33333V1" stroke="#057BFF" stroke-width="2" stroke-linecap="round" stroke-linejoin="round"/>
<path d="M5.16665 9.33333H1.83331" stroke="#057BFF" stroke-width="2" stroke-linecap="round" stroke-linejoin="round"/>
<path d="M13.7022 5.79777L16.0589 3.4411" stroke="#057BFF" stroke-width="2" stroke-linecap="round" stroke-linejoin="round"/>
<path d="M6.63108 5.79777L4.27441 3.4411" stroke="#057BFF" stroke-width="2" stroke-linecap="round" stroke-linejoin="round"/>
<path d="M5.99998 12.0933C5.00724 10.5736 4.91619 8.6351 5.76212 7.02895C6.60804 5.42281 8.25804 4.40132 10.0729 4.36023C11.8877 4.31914 13.5822 5.26491 14.5 6.83112" stroke="#057BFF" stroke-width="2" stroke-linecap="round" stroke-linejoin="round"/>
<path d="M13.5 14.3333C13.4999 14.6119 13.5174 14.8903 13.5522 15.1667C13.5174 14.8903 13.4999 14.6119 13.5 14.3333C13.5016 13.9147 13.5436 13.4972 13.6255 13.0867" stroke="#057BFF" stroke-width="2" stroke-linecap="round" stroke-linejoin="round"/>
<path fill-rule="evenodd" clip-rule="evenodd" d="M20.1667 21C23.6874 21.0042 26.6045 18.27 26.8279 14.7564C27.0513 11.2428 24.504 8.16111 21.0111 7.71936C17.5182 7.27761 14.284 9.62806 13.6256 13.0867C12.0825 12.3469 10.2438 12.6273 8.99131 13.7934C7.73885 14.9595 7.32801 16.7735 7.95583 18.3655C8.58364 19.9574 10.1221 21.0027 11.8334 21H20.1667Z" stroke="#057BFF" stroke-width="2" stroke-linecap="round" stroke-linejoin="round"/>
</svg>
