<svg width="23" height="23" viewBox="0 0 23 23" fill="none" xmlns="http://www.w3.org/2000/svg">
<path d="M11.8794 14.3182L8.72943 17.4682H13.4544L9.51693 21.4057" stroke="#057BFF" stroke-width="2" stroke-linecap="round" stroke-linejoin="round"/>
<circle cx="2.42946" cy="21.4057" r="0.39375" stroke="#057BFF" stroke-width="2.3" stroke-linecap="round" stroke-linejoin="round"/>
<circle cx="15.0294" cy="21.4057" r="0.39375" stroke="#057BFF" stroke-width="2" stroke-linecap="round" stroke-linejoin="round"/>
<path d="M8.72947 8.01819C8.72943 8.28146 8.74591 8.54448 8.77882 8.80569C8.74591 8.54448 8.72943 8.28146 8.72947 8.01819C8.73098 7.62258 8.77071 7.22805 8.84812 6.84009" stroke="#057BFF" stroke-width="2" stroke-linecap="round" stroke-linejoin="round"/>
<path fill-rule="evenodd" clip-rule="evenodd" d="M15.0294 14.3182C18.3565 14.3222 21.1131 11.7384 21.3242 8.41798C21.5354 5.09761 19.1282 2.18546 15.8274 1.768C12.5266 1.35055 9.47024 3.57173 8.84807 6.84011C7.38982 6.14104 5.65227 6.40602 4.46869 7.50799C3.28511 8.60996 2.89687 10.3242 3.49015 11.8286C4.08344 13.333 5.53727 14.3208 7.15442 14.3182H15.0294Z" stroke="#057BFF" stroke-width="2" stroke-linecap="round" stroke-linejoin="round"/>
<path d="M6.36695 17.4682L2.7077 21.1275" stroke="#057BFF" stroke-width="2" stroke-linecap="round" stroke-linejoin="round"/>
<path d="M18.9669 17.4682L15.3077 21.1275" stroke="#057BFF" stroke-width="2" stroke-linecap="round" stroke-linejoin="round"/>
</svg>
